<svg width="1300" height="562" viewBox="0 0 1300 562" fill="none" xmlns="http://www.w3.org/2000/svg">
<rect width="1300" height="562" rx="50" fill="#2F4896"/>
<g opacity="0.05" clip-path="url(#clip0_28_1561)">
<path d="M1284.04 312.294C1222.31 312.294 1172.08 362.52 1172.08 424.254C1172.08 485.99 1222.31 536.214 1284.04 536.214C1345.78 536.214 1396 485.988 1396 424.254C1396 362.518 1345.78 312.294 1284.04 312.294ZM1284.04 514.402C1234.33 514.402 1193.89 473.961 1193.89 424.253C1193.89 374.545 1234.33 334.103 1284.04 334.103C1333.75 334.103 1374.19 374.545 1374.19 424.253C1374.19 473.962 1333.75 514.402 1284.04 514.402Z" fill="white"/>
<path d="M1318.13 368.961C1316.91 368.21 1315.55 367.706 1314.14 367.478C1312.72 367.25 1311.28 367.303 1309.89 367.634C1308.49 367.965 1307.18 368.566 1306.02 369.405C1304.86 370.244 1303.87 371.303 1303.12 372.522L1246.4 464.54C1245.64 465.759 1245.14 467.114 1244.91 468.528C1244.68 469.942 1244.74 471.387 1245.07 472.781C1245.4 474.174 1246 475.489 1246.84 476.649C1247.68 477.81 1248.74 478.794 1249.96 479.546C1251.18 480.298 1252.53 480.803 1253.95 481.031C1255.36 481.259 1256.8 481.207 1258.2 480.876C1259.59 480.545 1260.91 479.943 1262.07 479.104C1263.23 478.265 1264.21 477.206 1264.96 475.986L1321.69 383.968C1322.44 382.749 1322.94 381.394 1323.17 379.98C1323.4 378.566 1323.35 377.121 1323.01 375.727C1322.68 374.334 1322.08 373.019 1321.24 371.858C1320.4 370.697 1319.35 369.713 1318.13 368.961ZM972.661 459.316L970.996 458.275C961.954 452.615 955.654 443.756 953.253 433.327C950.854 422.898 952.649 412.174 958.308 403.131C959.068 401.917 959.581 400.566 959.818 399.154C960.056 397.741 960.013 396.296 959.692 394.901C959.371 393.505 958.778 392.186 957.947 391.02C957.116 389.853 956.064 388.862 954.85 388.102C953.636 387.342 952.285 386.829 950.872 386.591C949.46 386.354 948.015 386.396 946.619 386.718C945.223 387.039 943.905 387.632 942.738 388.462C941.572 389.293 940.581 390.346 939.821 391.56C931.07 405.541 928.293 422.111 932 438.217C935.706 454.324 945.447 468.012 959.426 476.763L961.092 477.805C962.306 478.566 963.658 479.08 965.07 479.318C966.482 479.555 967.928 479.512 969.324 479.191C970.72 478.87 972.038 478.277 973.205 477.445C974.371 476.614 975.362 475.561 976.121 474.346C976.881 473.132 977.394 471.78 977.631 470.368C977.869 468.955 977.825 467.51 977.504 466.114C977.183 464.718 976.59 463.4 975.759 462.233C974.927 461.067 973.875 460.075 972.661 459.316ZM1195.19 100.073L1196.86 101.114C1215.56 112.819 1221.25 137.557 1209.55 156.258C1208.51 157.907 1207.94 159.804 1207.89 161.75C1207.84 163.696 1208.3 165.62 1209.25 167.324C1210.19 169.027 1211.57 170.448 1213.25 171.437C1214.92 172.426 1216.83 172.949 1218.78 172.95C1220.63 172.952 1222.45 172.483 1224.07 171.587C1225.69 170.691 1227.05 169.398 1228.04 167.829C1246.12 138.934 1237.33 100.713 1208.43 82.6262L1206.76 81.5836C1205.55 80.8239 1204.2 80.3108 1202.79 80.0736C1201.37 79.8363 1199.93 79.8795 1198.53 80.2008C1197.14 80.5221 1195.82 81.1151 1194.65 81.946C1193.49 82.7769 1192.49 83.8295 1191.74 85.0435C1190.98 86.2576 1190.46 87.6094 1190.23 89.0217C1189.99 90.4341 1190.03 91.8793 1190.35 93.275C1190.67 94.6706 1191.27 95.9893 1192.1 97.1558C1192.93 98.3222 1193.98 99.3136 1195.19 100.073Z" fill="white"/>
<path d="M1176.46 337.61L1176.46 337.607L1267.33 192.424C1282.67 167.929 1287.54 138.931 1281.06 110.769C1274.58 82.6083 1257.52 58.6558 1233.03 43.3258L1231.36 42.2818C1214.12 31.4913 1194.31 25.7871 1174.06 25.7871C1136.49 25.7871 1102.17 44.7784 1082.26 76.5871L900.521 366.96C885.189 391.455 880.315 420.453 886.794 448.613C893.274 476.774 910.333 500.726 934.824 516.056L936.492 517.1C953.731 527.891 973.547 533.594 993.796 533.594C1031.37 533.594 1065.68 514.602 1085.59 482.794L1176.46 337.61ZM1100.75 88.1599C1116.65 62.762 1144.05 47.5992 1174.06 47.5992C1190.21 47.5992 1206.02 52.1548 1219.79 60.77L1221.46 61.814C1241.01 74.0542 1254.63 93.1763 1259.81 115.66C1264.98 138.144 1261.09 161.295 1248.85 180.852L1163.76 316.795L1015.67 224.103L1100.75 88.1599ZM1067.1 471.225C1051.2 496.623 1023.8 511.786 993.795 511.786C977.643 511.786 961.83 507.232 948.065 498.617L946.397 497.573C926.84 485.332 913.222 466.209 908.048 443.726C902.875 421.242 906.767 398.091 919.007 378.534L1004.09 242.591L1152.19 335.284L1067.1 471.225Z" fill="white"/>
</g>
<g opacity="0.05" clip-path="url(#clip1_28_1561)">
<path d="M593.46 611.953C587.624 620.885 580.013 628.52 571.1 634.385C562.187 640.25 552.163 644.218 541.651 646.043C531.138 647.868 520.363 647.511 509.995 644.994C499.627 642.477 489.887 637.853 481.382 631.411C472.863 625.263 465.746 617.378 460.5 608.276C455.254 599.174 452 589.062 450.952 578.609C449.904 568.156 451.086 557.599 454.42 547.636C457.754 537.674 463.164 528.532 470.293 520.816L510.996 474.857C526.609 494.902 544.314 513.225 563.811 529.518C582.859 543.513 603.385 555.378 625.019 564.899L593.46 611.953ZM632.924 553.119L631.752 554.863C610.393 545.531 590.106 533.916 571.246 520.221C551.979 504.012 534.497 485.794 519.097 465.875C528.064 455.802 538.992 447.665 551.212 441.961C563.433 436.257 576.688 433.107 590.168 432.703C603.258 432.397 616.093 436.342 626.752 443.947C655.436 465.346 658.257 515.346 632.918 553.119H632.924ZM383.359 361.375H495.228C535.704 361.375 541.097 334.435 541.097 301.268V260.822C541.097 227.619 535.704 200.643 495.228 200.643H383.353V88.8157C383.353 48.3098 356.448 42.9229 323.234 42.9229H282.805C249.555 42.9229 222.615 48.3098 222.615 88.8157V200.643H103.448C66.9658 200.643 64.9062 227.607 64.9062 260.75V301.268C64.9062 334.435 66.9539 361.375 103.454 361.375H222.621V480.542C222.621 517.042 249.555 519.107 282.71 519.107H323.228C356.448 519.107 383.353 517.042 383.353 480.536L383.359 361.375ZM371.454 349.47V480.542C371.454 502.22 362.436 507.203 323.228 507.203H282.71C243.525 507.203 234.519 502.221 234.519 480.536V349.465H103.448C81.7872 349.465 76.811 340.459 76.811 301.268V260.75C76.811 221.56 81.7872 212.554 103.454 212.554H234.525V88.7979C234.525 62.4288 245.353 54.8098 282.799 54.8098H323.228C360.638 54.8098 371.454 62.4288 371.454 88.7979V212.548H495.228C521.573 212.548 529.192 223.375 529.192 260.816V301.262C529.192 338.649 521.573 349.465 495.228 349.465L371.454 349.47Z" fill="white"/>
<path d="M285.149 78.6299H261.339C259.76 78.6299 258.246 79.257 257.13 80.3733C256.014 81.4896 255.387 83.0036 255.387 84.5823V132.201C255.387 133.78 256.014 135.294 257.13 136.41C258.246 137.527 259.76 138.154 261.339 138.154C262.918 138.154 264.432 137.527 265.548 136.41C266.664 135.294 267.291 133.78 267.291 132.201V90.5346H285.149C286.727 90.5346 288.241 89.9075 289.358 88.7912C290.474 87.6749 291.101 86.1609 291.101 84.5823C291.101 83.0036 290.474 81.4896 289.358 80.3733C288.241 79.257 286.727 78.6299 285.149 78.6299Z" fill="white"/>
<path d="M261.331 161.963C264.619 161.963 267.284 159.298 267.284 156.011C267.284 152.724 264.619 150.059 261.331 150.059C258.044 150.059 255.379 152.724 255.379 156.011C255.379 159.298 258.044 161.963 261.331 161.963Z" fill="#6BBDE5"/>
<path d="M344.664 400.033H320.855C319.276 400.033 317.762 400.66 316.646 401.777C315.529 402.893 314.902 404.407 314.902 405.986C314.902 407.564 315.529 409.078 316.646 410.195C317.762 411.311 319.276 411.938 320.855 411.938H338.712V453.605C338.712 455.183 339.339 456.697 340.455 457.814C341.572 458.93 343.086 459.557 344.664 459.557C346.243 459.557 347.757 458.93 348.873 457.814C349.99 456.697 350.617 455.183 350.617 453.605V405.986C350.617 404.407 349.99 402.893 348.873 401.777C347.757 400.66 346.243 400.033 344.664 400.033Z" fill="white"/>
<path d="M344.667 483.367C347.955 483.367 350.62 480.702 350.62 477.414C350.62 474.127 347.955 471.462 344.667 471.462C341.38 471.462 338.715 474.127 338.715 477.414C338.715 480.702 341.38 483.367 344.667 483.367Z" fill="#6BBDE5"/>
<path d="M454.788 248.273H496.455V266.13C496.455 267.709 497.082 269.223 498.198 270.339C499.315 271.455 500.829 272.082 502.407 272.082C503.986 272.082 505.5 271.455 506.616 270.339C507.733 269.223 508.36 267.709 508.36 266.13V242.321C508.36 240.742 507.733 239.228 506.616 238.112C505.5 236.995 503.986 236.368 502.407 236.368H454.788C453.21 236.368 451.696 236.995 450.579 238.112C449.463 239.228 448.836 240.742 448.836 242.321C448.836 243.899 449.463 245.413 450.579 246.53C451.696 247.646 453.21 248.273 454.788 248.273Z" fill="white"/>
<path d="M430.976 248.273C434.263 248.273 436.928 245.608 436.928 242.321C436.928 239.033 434.263 236.368 430.976 236.368C427.688 236.368 425.023 239.033 425.023 242.321C425.023 245.608 427.688 248.273 430.976 248.273Z" fill="#6BBDE5"/>
<path d="M180.974 295.893C179.395 295.893 177.881 296.52 176.765 297.636C175.649 298.752 175.021 300.266 175.021 301.845V319.702H133.355C131.776 319.702 130.262 320.329 129.146 321.446C128.029 322.562 127.402 324.076 127.402 325.654C127.402 327.233 128.029 328.747 129.146 329.863C130.262 330.98 131.776 331.607 133.355 331.607H180.974C182.552 331.607 184.066 330.98 185.183 329.863C186.299 328.747 186.926 327.233 186.926 325.654V301.845C186.926 300.266 186.299 298.752 185.183 297.636C184.066 296.52 182.552 295.893 180.974 295.893Z" fill="white"/>
<path d="M109.55 331.582C112.837 331.582 115.502 328.917 115.502 325.629C115.502 322.342 112.837 319.677 109.55 319.677C106.263 319.677 103.598 322.342 103.598 325.629C103.598 328.917 106.263 331.582 109.55 331.582Z" fill="#6BBDE5"/>
<path d="M606.568 -162.454C610.1 -162.454 613.552 -163.501 616.489 -165.463C619.426 -167.425 621.714 -170.214 623.066 -173.477C624.417 -176.74 624.771 -180.331 624.082 -183.795C623.393 -187.259 621.692 -190.44 619.195 -192.938C616.698 -195.435 613.516 -197.136 610.052 -197.825C606.588 -198.514 602.997 -198.16 599.734 -196.809C596.471 -195.457 593.683 -193.168 591.72 -190.232C589.758 -187.295 588.711 -183.843 588.711 -180.311C588.716 -175.576 590.599 -171.037 593.946 -167.689C597.294 -164.341 601.834 -162.458 606.568 -162.454ZM606.568 -189.239C608.334 -189.239 610.06 -188.716 611.529 -187.735C612.997 -186.754 614.141 -185.359 614.817 -183.728C615.493 -182.096 615.67 -180.301 615.325 -178.569C614.981 -176.837 614.13 -175.246 612.882 -173.997C611.633 -172.749 610.042 -171.898 608.31 -171.554C606.578 -171.209 604.783 -171.386 603.151 -172.062C601.52 -172.738 600.125 -173.882 599.144 -175.35C598.163 -176.819 597.64 -178.545 597.64 -180.311C597.641 -182.678 598.582 -184.948 600.256 -186.623C601.93 -188.297 604.201 -189.238 606.568 -189.239ZM672.044 -43.4061C669.69 -43.4061 667.388 -42.7078 665.43 -41.3997C663.473 -40.0916 661.947 -38.2324 661.046 -36.057C660.145 -33.8817 659.909 -31.4881 660.368 -29.1788C660.828 -26.8695 661.961 -24.7482 663.626 -23.0833C665.291 -21.4184 667.412 -20.2846 669.722 -19.8253C672.031 -19.3659 674.425 -19.6017 676.6 -20.5027C678.775 -21.4038 680.635 -22.9296 681.943 -24.8873C683.251 -26.8451 683.949 -29.1467 683.949 -31.5013C683.946 -34.6577 682.691 -37.6839 680.459 -39.9157C678.227 -42.1476 675.201 -43.4029 672.044 -43.4061ZM672.044 -25.5489C670.867 -25.5489 669.716 -25.898 668.737 -26.5521C667.758 -27.2061 666.996 -28.1358 666.545 -29.2234C666.095 -30.3111 665.977 -31.5079 666.206 -32.6625C666.436 -33.8172 667.003 -34.8778 667.835 -35.7103C668.668 -36.5427 669.728 -37.1096 670.883 -37.3393C672.038 -37.569 673.235 -37.4511 674.322 -37.0006C675.41 -36.55 676.339 -35.7871 676.993 -34.8083C677.648 -33.8294 677.997 -32.6786 677.997 -31.5013C677.995 -29.9231 677.367 -28.41 676.252 -27.2941C675.136 -26.1781 673.622 -25.5505 672.044 -25.5489ZM-12.4795 4.21298C-12.4795 1.85844 -13.1777 -0.443222 -14.4858 -2.40094C-15.794 -4.35867 -17.6532 -5.88454 -19.8285 -6.78558C-22.0038 -7.68661 -24.3975 -7.92238 -26.7068 -7.46303C-29.0161 -7.00368 -31.1373 -5.86987 -32.8022 -4.20496C-34.4671 -2.54004 -35.601 -0.418823 -36.0603 1.89047C-36.5197 4.19977 -36.2839 6.59343 -35.3829 8.76874C-34.4818 10.944 -32.956 12.8033 -30.9982 14.1115C-29.0405 15.4196 -26.7388 16.1178 -24.3843 16.1178C-21.2279 16.1146 -18.2017 14.8593 -15.9698 12.6274C-13.7379 10.3956 -12.4827 7.36935 -12.4795 4.21298ZM-30.3367 4.21298C-30.3367 3.03572 -29.9876 1.8849 -29.3335 0.906036C-28.6795 -0.0728302 -27.7498 -0.835754 -26.6622 -1.28629C-25.5745 -1.7368 -24.3777 -1.85469 -23.223 -1.62502C-22.0684 -1.39534 -21.0078 -0.828445 -20.1753 0.00401306C-19.3429 0.836472 -18.776 1.89708 -18.5463 3.05173C-18.3166 4.20638 -18.4345 5.40321 -18.885 6.49086C-19.3355 7.57852 -20.0985 8.50816 -21.0773 9.16222C-22.0562 9.81627 -23.207 10.1654 -24.3843 10.1654C-25.9625 10.1638 -27.4756 9.53616 -28.5915 8.42021C-29.7075 7.30428 -30.3351 5.79117 -30.3367 4.21298Z" fill="white"/>
<path d="M-163.773 75.7077L-154.922 64.0708L-160.512 60.9041L-166.19 73.9398H-166.381L-172.154 60.9934L-177.839 64.2553L-169.083 75.6184V75.8029L-182.773 74.0351V80.3684L-168.988 78.6006V78.7851L-177.839 90.1422L-172.529 93.4994L-166.47 80.3684H-166.291L-160.702 93.4041L-154.833 90.0529L-163.773 78.8744V78.6898L-149.714 80.3684V74.0351L-163.773 75.8922V75.7077ZM-7.85678 -168.007L-12.958 -161.465L-9.89845 -159.536L-6.41035 -167.096H-6.30322L-3.08893 -159.59L0.292023 -161.519L-4.8568 -167.959V-168.066L3.23845 -167.096V-170.745L-4.8568 -169.673V-169.78L0.238464 -176.483L-2.97583 -178.304L-6.24963 -170.798H-6.35678L-9.67821 -178.257L-12.958 -176.376L-7.91035 -169.834V-169.727L-15.7973 -170.745V-167.096L-7.85678 -168.114V-168.007ZM731.566 181.077V174.868L717.774 176.696V176.511L726.459 165.095L720.976 161.987L715.405 174.773H715.215L709.554 162.077L703.977 165.279L712.566 176.422V176.606L699.137 174.868V181.077L712.655 179.345V179.529L703.977 190.672L709.185 193.964L715.125 181.077H715.304L720.786 193.868L726.542 190.583L717.774 179.618V179.434L731.566 181.077ZM317.536 -194.679L325.024 -204.53L320.298 -207.209L315.488 -196.179H315.328L310.447 -207.132L305.637 -204.37L313.048 -194.757V-194.602L301.459 -196.096V-190.739L313.125 -192.239V-192.078L305.637 -182.465L310.125 -179.626L315.256 -190.739H315.405L320.137 -179.709L325.102 -182.542L317.536 -192.001V-192.161L329.435 -190.739V-196.096L317.536 -194.524V-194.679Z" fill="#6BBDE5"/>
</g>
<defs>
<clipPath id="clip0_28_1561">
<rect width="512" height="512" fill="white" transform="translate(884 25)"/>
</clipPath>
<clipPath id="clip1_28_1561">
<rect width="1000" height="1000" fill="white" transform="translate(-197 -219)"/>
</clipPath>
</defs>
</svg>
