<svg width="199" height="54" viewBox="0 0 199 54" fill="none" xmlns="http://www.w3.org/2000/svg">
<path fill-rule="evenodd" clip-rule="evenodd" d="M30.3451 22.2987V22.3022V26.2962C30.3451 32.2781 25.4791 37.1441 19.4978 37.1441C13.5161 37.1441 8.65002 32.2781 8.65002 26.2962V22.3022V18.3037V14.4987C8.65002 8.51699 13.5161 3.65077 19.4978 3.65077C25.4791 3.65077 30.3451 8.51699 30.3451 14.4987V18.3001L35.3597 18.2915V6.71092C31.6468 2.59104 26.2701 0 20.2874 0C9.08282 0 0 9.083 0 20.2874C0 31.4919 9.08282 40.5746 20.2874 40.5746C26.2701 40.5746 31.6468 37.9838 35.3597 33.8639V22.2899L30.3451 22.2987Z" fill="#2F4896"/>
<path fill-rule="evenodd" clip-rule="evenodd" d="M12.6484 26.2966C12.6484 30.0733 15.7212 33.1458 19.4979 33.1458C23.2747 33.1458 26.3471 30.0733 26.3471 26.2966V22.302H12.6484V26.2966Z" fill="#6BBDE5"/>
<path fill-rule="evenodd" clip-rule="evenodd" d="M26.3471 14.499C26.3471 10.7221 23.2747 7.64984 19.4979 7.64984C15.7212 7.64984 12.6484 10.7221 12.6484 14.499V18.3039H26.3471V14.499Z" fill="#3C61A7"/>
<path fill-rule="evenodd" clip-rule="evenodd" d="M49.1576 27.8217H57.8179C59.7901 27.8217 61.2051 26.5354 61.2051 24.9065C61.2051 23.1917 59.7901 21.9054 57.8179 21.9054H49.1576V27.8217ZM49.1576 17.7467H56.9604C58.8465 17.7467 59.8761 16.5034 59.8761 15.0888C59.8761 13.6738 58.8465 12.4303 56.9604 12.4303H49.1576V17.7467ZM44.7845 8.27231H57.4318C61.0334 8.27231 64.2486 10.4155 64.2486 14.6169C64.2486 16.8033 63.1338 18.5614 61.3767 19.3329C63.8198 20.1476 65.5774 22.0769 65.5774 25.1209C65.5774 29.3223 62.448 31.9801 58.2894 31.9801H44.7845V8.27231Z" fill="#393A8C"/>
<path fill-rule="evenodd" clip-rule="evenodd" d="M83.2406 20.9621C82.4258 18.1752 80.3255 16.718 77.8385 16.718C75.3523 16.718 73.2941 18.2613 72.6942 20.9621H83.2406ZM86.8416 28.0364C84.6556 30.7798 81.6545 32.452 78.353 32.452C72.0077 32.452 68.2786 27.6931 68.2786 22.8486C68.2786 18.0037 72.0077 13.2453 78.353 13.2453C82.1688 13.2453 87.8279 16.3748 87.8279 23.4913V24.2206H72.6942C72.9081 27.0073 75.5233 28.9795 78.2673 28.9795C80.3677 28.9795 82.1688 27.993 83.5405 26.1499L86.8416 28.0364Z" fill="#393A8C"/>
<path fill-rule="evenodd" clip-rule="evenodd" d="M92.7161 26.5353C94.1304 28.036 96.403 29.2363 98.4607 29.2363C100.733 29.2363 102.062 27.95 102.062 26.9214C102.062 25.7208 101.119 25.0776 99.7042 24.8205L97.4743 24.3919C92.33 23.4488 90.9155 21.7766 90.9155 19.2046C90.9155 16.1173 93.5306 13.2451 98.0746 13.2451C100.605 13.2451 102.834 13.9738 105.321 15.7747L103.091 18.5181C101.162 16.8894 99.4898 16.4606 98.2035 16.4606C96.4885 16.4606 94.8164 17.3181 94.8164 18.7755C94.8164 19.8906 95.717 20.4476 97.2172 20.7048L101.162 21.4334C104.42 22.0765 106.006 23.6204 106.006 26.3212C106.006 28.9791 103.82 32.4518 98.2463 32.4518C95.1595 32.4518 92.5444 31.38 90.0579 29.2795L92.7161 26.5353Z" fill="#393A8C"/>
<path fill-rule="evenodd" clip-rule="evenodd" d="M107.55 13.7169H109.78V8.87235L113.724 7.80048V13.7169H116.854V17.404H113.724V24.6065C113.724 26.5786 114.153 27.4789 115.353 28.1647L117.454 29.3655L115.695 32.4521C111.666 30.5655 109.78 29.1511 109.78 25.3351V17.404H107.55V13.7169Z" fill="#393A8C"/>
<path fill-rule="evenodd" clip-rule="evenodd" d="M144.357 27.6073C141.743 30.9083 138.055 32.4523 134.283 32.4523C127.166 32.4523 121.55 27.093 121.55 20.1477C121.55 13.2023 127.166 7.80029 134.283 7.80029C138.055 7.80029 141.743 9.34404 144.357 12.6452L140.757 15.3887C139.256 13.2023 136.941 11.9588 134.283 11.9588C129.996 11.9588 126.138 15.5176 126.138 20.1477C126.138 24.7349 129.996 28.3358 134.283 28.3358C136.941 28.3358 139.342 27.093 140.843 25.0348L144.357 27.6073Z" fill="#393A8C"/>
<path fill-rule="evenodd" clip-rule="evenodd" d="M155.193 28.7649C158.28 28.7649 160.896 26.1497 160.896 22.8486C160.896 19.5474 158.28 16.9324 155.193 16.9324C152.02 16.9324 149.362 19.5474 149.362 22.8486C149.362 26.1497 152.02 28.7649 155.193 28.7649ZM160.767 29.7508H160.681C159.437 31.4229 157.165 32.452 154.678 32.452C148.677 32.452 145.204 27.5643 145.204 22.8486C145.204 18.3469 148.977 13.2453 154.893 13.2453C157.594 13.2453 159.652 14.4026 160.681 15.946H160.767V13.7167H164.668V31.9804H160.767V29.7508Z" fill="#393A8C"/>
<path fill-rule="evenodd" clip-rule="evenodd" d="M168.645 13.7168H172.333V15.7316H172.418C173.061 14.2311 174.433 13.2453 176.019 13.2453C176.877 13.2453 177.649 13.4595 178.163 13.8023L176.748 17.6609C176.362 17.3607 175.676 17.1468 175.291 17.1468C173.876 17.1468 172.589 18.2614 172.589 19.8903V31.9801H168.645V13.7168Z" fill="#393A8C"/>
<path fill-rule="evenodd" clip-rule="evenodd" d="M194.413 20.9621C193.598 18.1752 191.498 16.718 189.011 16.718C186.524 16.718 184.466 18.2613 183.866 20.9621H194.413ZM198.014 28.0364C195.827 30.7798 192.827 32.452 189.526 32.452C183.18 32.452 179.451 27.6931 179.451 22.8486C179.451 18.0037 183.18 13.2453 189.526 13.2453C193.341 13.2453 199 16.3748 199 23.4913V24.2206H183.866C184.08 27.0073 186.696 28.9795 189.439 28.9795C191.54 28.9795 193.341 27.993 194.713 26.1499L198.014 28.0364Z" fill="#393A8C"/>
<path fill-rule="evenodd" clip-rule="evenodd" d="M45.6248 44.8438H48.7509C48.9712 44.8438 49.1645 44.7933 49.3342 44.6923C49.5014 44.5912 49.6324 44.4489 49.7266 44.2655C49.8209 44.0816 49.869 43.8706 49.869 43.6342C49.869 43.3909 49.8233 43.1776 49.731 42.9915C49.6374 42.8057 49.5089 42.6629 49.341 42.5624C49.1714 42.4613 48.976 42.4108 48.7509 42.4108H45.6248V40.6341H48.7054C49.3136 40.6341 49.8508 40.7577 50.3142 41.0079C50.7802 41.2561 51.1384 41.6073 51.3954 42.0595C51.6505 42.5137 51.779 43.0372 51.779 43.6342C51.779 44.2311 51.6505 44.7546 51.3954 45.2043C51.1384 45.6542 50.7802 46.0029 50.3142 46.2512C49.8508 46.4964 49.3136 46.6205 48.7054 46.6205H45.6248V44.8438ZM44.7845 40.6341H46.6256V50.4128H44.7845V40.6341ZM53.2231 40.6341H55.0661V50.4128H53.2231V40.6341ZM57.2586 46.182C57.2586 45.8425 57.1596 45.5786 56.9668 45.3903C56.7716 45.1994 56.4939 45.1058 56.1358 45.1058C55.7939 45.1058 55.5321 45.2019 55.3442 45.3927C55.1583 45.5831 55.0661 45.8518 55.0661 46.1956L54.9238 44.6486C55.1351 44.2105 55.3877 43.88 55.6816 43.6616C55.9754 43.4415 56.3449 43.331 56.7877 43.331C57.5226 43.331 58.0916 43.5792 58.4957 44.0747C58.8994 44.5706 59.1015 45.2711 59.1015 46.175V50.4128H57.2586V46.182ZM64.7579 45.9872C64.7579 45.6655 64.6499 45.4153 64.4341 45.2412C64.2207 45.0666 63.9151 44.9792 63.5202 44.9792C63.2612 44.9792 63.0016 45.0203 62.7465 45.1058C62.492 45.1925 62.265 45.3099 62.0672 45.4639L60.9244 44.3391C61.2019 44.0222 61.5693 43.774 62.0286 43.5974C62.4852 43.4209 62.9898 43.331 63.5481 43.331C64.1563 43.331 64.6774 43.4321 65.1065 43.6367C65.5381 43.8407 65.8664 44.1369 66.0934 44.5249C66.3185 44.9131 66.4335 45.3809 66.4335 45.9274V50.4128H64.7579V45.9872ZM62.8133 50.5139C62.0647 50.5139 61.507 50.3347 61.1353 49.9791C60.7658 49.623 60.5819 49.0814 60.5819 48.356C60.5819 47.6648 60.7888 47.1464 61.2043 46.802C61.6174 46.4552 62.2393 46.283 63.0703 46.283H64.8172L64.9113 47.6878H63.0772C62.797 47.6878 62.5906 47.7434 62.4508 47.8531C62.313 47.9635 62.2419 48.1308 62.2419 48.356C62.2419 48.583 62.3291 48.7533 62.5058 48.8632C62.6804 48.9736 62.9443 49.026 63.2975 49.026C63.7914 49.026 64.1584 48.9711 64.3972 48.8587C64.6381 48.7464 64.7579 48.5718 64.7579 48.3354L64.9001 49.3498C64.8726 49.6 64.7578 49.8139 64.5531 49.988C64.3491 50.165 64.0921 50.2955 63.7865 50.3828C63.479 50.4701 63.1553 50.5139 62.8133 50.5139ZM68.2468 43.4321H70.2232V50.4128H68.2468V43.4321ZM72.1744 45.3765C72.0848 45.2868 71.9744 45.2181 71.8458 45.1744C71.7153 45.1283 71.5637 45.1058 71.3936 45.1058C71.0218 45.1058 70.7349 45.2275 70.5307 45.4658C70.3261 45.7072 70.2232 46.0398 70.2232 46.4646L70.0828 44.6486C70.2756 44.2332 70.5263 43.9099 70.8339 43.6778C71.1389 43.4458 71.4765 43.331 71.8458 43.331C72.1353 43.331 72.3992 43.3771 72.6356 43.4688C72.8701 43.5605 73.0765 43.696 73.2508 43.8749L72.1744 45.3765ZM82.2632 46.3841C82.2632 45.9754 82.1669 45.6609 81.9717 45.4384C81.7765 45.2181 81.4988 45.1058 81.1408 45.1058C80.7871 45.1058 80.5138 45.2136 80.3235 45.427C80.1328 45.6379 80.0366 45.9411 80.0366 46.3315L79.6946 44.7177C79.9149 44.2724 80.1994 43.9305 80.5507 43.6915C80.9044 43.4508 81.2943 43.331 81.726 43.331C82.2263 43.331 82.6555 43.4508 83.0137 43.6872C83.3696 43.9255 83.6404 44.2725 83.8264 44.7291C84.0123 45.1882 84.1064 45.7371 84.1064 46.3772V50.4128H82.2632V46.3841ZM74.1258 43.4321H75.9686V50.4128H74.1258V43.4321ZM78.1957 46.3841C78.1957 45.9754 78.0946 45.6609 77.8925 45.4384C77.6904 45.2181 77.4059 45.1058 77.0385 45.1058C76.6966 45.1058 76.4346 45.2019 76.2469 45.3927C76.0608 45.5831 75.9686 45.8518 75.9686 46.1956L75.8263 44.6486C76.033 44.2193 76.2924 43.8912 76.6001 43.6685C76.91 43.4439 77.2725 43.331 77.6904 43.331C78.1839 43.331 78.6062 43.4508 78.9575 43.6872C79.3086 43.9255 79.5775 44.2725 79.7609 44.7291C79.9449 45.1882 80.0366 45.7371 80.0366 46.3772V50.4128H78.1957V46.3841ZM89.7626 45.9872C89.7626 45.6655 89.6548 45.4153 89.439 45.2412C89.2255 45.0666 88.9201 44.9792 88.5252 44.9792C88.2661 44.9792 88.0066 45.0203 87.7515 45.1058C87.497 45.1925 87.2699 45.3099 87.0721 45.4639L85.9293 44.3391C86.2069 44.0222 86.5743 43.774 87.0334 43.5974C87.4902 43.4209 87.9948 43.331 88.5531 43.331C89.1613 43.331 89.6824 43.4321 90.1115 43.6367C90.5431 43.8407 90.8713 44.1369 91.0984 44.5249C91.3235 44.9131 91.4384 45.3809 91.4384 45.9274V50.4128H89.7626V45.9872ZM87.8183 50.5139C87.0697 50.5139 86.5119 50.3347 86.1402 49.9791C85.7708 49.623 85.5868 49.0814 85.5868 48.356C85.5868 47.6648 85.7938 47.1464 86.2093 46.802C86.6224 46.4552 87.2443 46.283 88.0752 46.283H89.822L89.9163 47.6878H88.0822C87.802 47.6878 87.5956 47.7434 87.4558 47.8531C87.318 47.9635 87.2469 48.1308 87.2469 48.356C87.2469 48.583 87.3341 48.7533 87.5108 48.8632C87.6854 48.9736 87.9493 49.026 88.3025 49.026C88.7963 49.026 89.1632 48.9711 89.4022 48.8587C89.6431 48.7464 89.7626 48.5718 89.7626 48.3354L89.9049 49.3498C89.8775 49.6 89.7626 49.8139 89.5581 49.988C89.354 50.165 89.0971 50.2955 88.7915 50.3828C88.484 50.4701 88.1602 50.5139 87.8183 50.5139ZM96.2038 50.5139C95.5401 50.5139 94.9731 50.3877 94.5001 50.1326C94.0274 49.88 93.6672 49.5107 93.4191 49.026C93.1739 48.5443 93.0496 47.9611 93.0496 47.2793V46.5331C93.0496 45.8563 93.1739 45.278 93.4191 44.8002C93.6672 44.3229 94.0274 43.958 94.5001 43.7078C94.9731 43.4576 95.5401 43.331 96.2038 43.331C96.585 43.331 96.9449 43.3747 97.2849 43.4621C97.6224 43.5493 97.925 43.6754 98.1938 43.8431C98.4646 44.0085 98.6873 44.2105 98.8664 44.447L97.6772 45.6037C97.5077 45.4476 97.308 45.326 97.0783 45.2387C96.8508 45.1513 96.6099 45.1058 96.3598 45.1058C95.8938 45.1058 95.5313 45.2318 95.2762 45.4796C95.0217 45.7277 94.8931 46.079 94.8931 46.5331V47.2793C94.8931 47.7453 95.0217 48.1058 95.2762 48.3584C95.5313 48.6105 95.8938 48.7396 96.3598 48.7396C96.6144 48.7396 96.8556 48.691 97.0853 48.5968C97.3149 48.503 97.512 48.3672 97.6772 48.1932L98.8664 49.4164C98.6828 49.6505 98.4577 49.8481 98.1894 50.0134C97.9181 50.1762 97.6175 50.3005 97.2799 50.3853C96.9449 50.4701 96.585 50.5139 96.2038 50.5139ZM103.104 50.5139C102.431 50.5139 101.855 50.3922 101.378 50.1463C100.9 49.903 100.538 49.5474 100.285 49.0766C100.035 48.6086 99.9087 48.0458 99.9087 47.3872V46.5999C99.9087 45.9088 100.03 45.3192 100.269 44.8302C100.508 44.3409 100.859 43.9693 101.318 43.7147C101.777 43.4596 102.333 43.331 102.982 43.331C103.593 43.331 104.114 43.4827 104.55 43.7877C104.984 44.0933 105.314 44.5363 105.542 45.1171C105.769 45.6978 105.881 46.3978 105.881 47.2175V47.6766H101.107V46.4322H104.199L104.181 46.2692C104.13 45.8676 104.004 45.5556 103.8 45.3353C103.595 45.1146 103.324 45.0067 102.982 45.0067C102.539 45.0067 102.195 45.1377 101.949 45.4015C101.706 45.6679 101.584 46.0422 101.584 46.5263V47.4127C101.584 47.8875 101.717 48.2573 101.984 48.5169C102.25 48.7758 102.624 48.9068 103.104 48.9068C103.35 48.9068 103.595 48.8632 103.836 48.7758C104.08 48.6891 104.297 48.5624 104.495 48.402L105.7 49.4714C105.337 49.8021 104.929 50.0591 104.476 50.2406C104.022 50.4222 103.566 50.5139 103.104 50.5139ZM111.335 43.4321H113.172V50.4128H111.335V43.4321ZM109.171 47.6766C109.171 48.0116 109.265 48.2736 109.456 48.4595C109.646 48.6453 109.915 48.7396 110.261 48.7396C110.605 48.7396 110.872 48.6429 111.058 48.4525C111.244 48.2618 111.335 47.9886 111.335 47.6354L111.43 49.1618C111.301 49.5425 111.083 49.8644 110.783 50.1233C110.48 50.3829 110.11 50.5139 109.676 50.5139C108.926 50.5139 108.347 50.273 107.941 49.7907C107.532 49.3086 107.328 48.6268 107.328 47.7434V43.4321H109.171V47.6766ZM116.939 50.4471C116.328 50.4471 115.881 50.2911 115.596 49.9791C115.311 49.6666 115.169 49.2075 115.169 48.5968V41.4009H117.012V48.1402C117.012 48.31 117.047 48.4407 117.113 48.5325C117.18 48.6247 117.279 48.6704 117.41 48.6704H117.866V50.4471H116.939ZM114.451 43.4321H117.866V45.0067H114.451V43.4321ZM119.379 40.6341H121.222V42.4771H119.379V40.6341ZM119.379 43.4321H121.222V50.4128H119.379V43.4321ZM125.889 50.5139C125.226 50.5139 124.659 50.3877 124.186 50.1326C123.713 49.88 123.353 49.5107 123.105 49.026C122.859 48.5443 122.735 47.9611 122.735 47.2793V46.5331C122.735 45.8563 122.859 45.278 123.105 44.8002C123.353 44.3229 123.713 43.958 124.186 43.7078C124.659 43.4576 125.226 43.331 125.889 43.331C126.27 43.331 126.63 43.3747 126.97 43.4621C127.308 43.5493 127.611 43.6754 127.879 43.8431C128.15 44.0085 128.373 44.2105 128.552 44.447L127.363 45.6037C127.193 45.4476 126.993 45.326 126.764 45.2387C126.536 45.1513 126.295 45.1058 126.045 45.1058C125.579 45.1058 125.217 45.2318 124.962 45.4796C124.707 45.7277 124.579 46.079 124.579 46.5331V47.2793C124.579 47.7453 124.707 48.1058 124.962 48.3584C125.217 48.6105 125.579 48.7396 126.045 48.7396C126.3 48.7396 126.541 48.691 126.771 48.5968C127 48.503 127.197 48.3672 127.363 48.1932L128.552 49.4164C128.368 49.6505 128.143 49.8481 127.875 50.0134C127.604 50.1762 127.303 50.3005 126.965 50.3853C126.63 50.4701 126.27 50.5139 125.889 50.5139ZM133.637 45.9872C133.637 45.6655 133.529 45.4153 133.313 45.2412C133.1 45.0666 132.794 44.9792 132.399 44.9792C132.14 44.9792 131.881 45.0203 131.626 45.1058C131.371 45.1925 131.144 45.3099 130.946 45.4639L129.803 44.3391C130.081 44.0222 130.448 43.774 130.907 43.5974C131.364 43.4209 131.869 43.331 132.427 43.331C133.035 43.331 133.556 43.4321 133.985 43.6367C134.417 43.8407 134.745 44.1369 134.972 44.5249C135.197 44.9131 135.312 45.3809 135.312 45.9274V50.4128H133.637V45.9872ZM131.692 50.5139C130.944 50.5139 130.386 50.3347 130.014 49.9791C129.645 49.623 129.461 49.0814 129.461 48.356C129.461 47.6648 129.668 47.1464 130.083 46.802C130.496 46.4552 131.118 46.283 131.949 46.283H133.696L133.79 47.6878H131.956C131.676 47.6878 131.469 47.7434 131.33 47.8531C131.192 47.9635 131.121 48.1308 131.121 48.356C131.121 48.583 131.208 48.7533 131.385 48.8632C131.559 48.9736 131.823 49.026 132.176 49.026C132.67 49.026 133.037 48.9711 133.276 48.8587C133.517 48.7464 133.637 48.5718 133.637 48.3354L133.779 49.3498C133.751 49.6 133.637 49.8139 133.432 49.988C133.228 50.165 132.971 50.2955 132.665 50.3828C132.358 50.4701 132.034 50.5139 131.692 50.5139ZM138.969 48.1058C138.969 48.2755 139.017 48.4065 139.113 48.5006C139.21 48.5923 139.348 48.6386 139.527 48.6386H139.836V50.4128H138.896C138.335 50.4128 137.899 50.2519 137.589 49.9286C137.282 49.6049 137.126 49.1501 137.126 48.5624V40.6341H138.969V48.1058ZM147.763 50.5139C147.099 50.5139 146.532 50.3877 146.06 50.1326C145.587 49.88 145.227 49.5107 144.978 49.026C144.733 48.5443 144.609 47.9611 144.609 47.2793V46.5331C144.609 45.8563 144.733 45.278 144.978 44.8002C145.227 44.3229 145.587 43.958 146.06 43.7078C146.532 43.4576 147.099 43.331 147.763 43.331C148.144 43.331 148.504 43.3747 148.844 43.4621C149.182 43.5493 149.484 43.6754 149.753 43.8431C150.024 44.0085 150.247 44.2105 150.426 44.447L149.237 45.6037C149.067 45.4476 148.867 45.326 148.638 45.2387C148.41 45.1513 148.169 45.1058 147.919 45.1058C147.453 45.1058 147.091 45.2318 146.836 45.4796C146.581 45.7277 146.452 46.079 146.452 46.5331V47.2793C146.452 47.7453 146.581 48.1058 146.836 48.3584C147.091 48.6105 147.453 48.7396 147.919 48.7396C148.174 48.7396 148.415 48.691 148.645 48.5968C148.874 48.503 149.072 48.3672 149.237 48.1932L150.426 49.4164C150.242 49.6505 150.017 49.8481 149.749 50.0134C149.478 50.1762 149.177 50.3005 148.839 50.3853C148.504 50.4701 148.144 50.5139 147.763 50.5139ZM154.482 50.5139C153.844 50.5139 153.302 50.3946 152.85 50.1581C152.4 49.9193 152.058 49.5725 151.822 49.1182C151.587 48.6635 151.468 48.1151 151.468 47.4745V46.3384C151.468 45.7047 151.587 45.1631 151.822 44.7129C152.058 44.2631 152.4 43.9187 152.85 43.6848C153.302 43.4482 153.844 43.331 154.482 43.331C155.118 43.331 155.662 43.4482 156.112 43.6848C156.564 43.9187 156.906 44.2631 157.14 44.7129C157.377 45.1631 157.494 45.7047 157.494 46.3384V47.4951C157.494 48.1308 157.377 48.6749 157.14 49.1251C156.906 49.5749 156.564 49.9193 156.112 50.1581C155.662 50.3946 155.118 50.5139 154.482 50.5139ZM154.475 48.7396C154.847 48.7396 155.136 48.6292 155.343 48.4108C155.549 48.1951 155.653 47.8875 155.653 47.4951V46.3384C155.653 45.948 155.549 45.6449 155.343 45.4291C155.136 45.2136 154.847 45.1058 154.475 45.1058C154.108 45.1058 153.821 45.2136 153.617 45.4291C153.413 45.6449 153.312 45.948 153.312 46.3384V47.4951C153.312 47.8875 153.413 48.1951 153.614 48.4108C153.816 48.6292 154.103 48.7396 154.475 48.7396ZM167.314 46.3841C167.314 45.9754 167.218 45.6609 167.023 45.4384C166.827 45.2181 166.55 45.1058 166.192 45.1058C165.838 45.1058 165.565 45.2136 165.375 45.427C165.184 45.6379 165.088 45.9411 165.088 46.3315L164.746 44.7177C164.966 44.2724 165.25 43.9305 165.602 43.6915C165.955 43.4508 166.345 43.331 166.777 43.331C167.277 43.331 167.706 43.4508 168.065 43.6872C168.421 43.9255 168.691 44.2725 168.877 44.7291C169.063 45.1882 169.158 45.7371 169.158 46.3772V50.4128H167.314V46.3841ZM159.177 43.4321H161.02V50.4128H159.177V43.4321ZM163.247 46.3841C163.247 45.9754 163.146 45.6609 162.943 45.4384C162.741 45.2181 162.457 45.1058 162.089 45.1058C161.748 45.1058 161.486 45.2019 161.298 45.3927C161.112 45.5831 161.02 45.8518 161.02 46.1956L160.877 44.6486C161.084 44.2193 161.343 43.8912 161.651 43.6685C161.961 43.4439 162.323 43.331 162.741 43.331C163.235 43.331 163.657 43.4508 164.008 43.6872C164.36 43.9255 164.628 44.2725 164.812 44.7291C164.996 45.1882 165.088 45.7371 165.088 46.3772V50.4128H163.247V46.3841ZM170.973 43.4321H172.816V53.2499H170.973V43.4321ZM174.437 50.5139C174.028 50.5139 173.677 50.4102 173.381 50.2013C173.085 49.9928 172.865 49.6966 172.723 49.3155L172.816 47.7223C172.816 47.9517 172.855 48.1469 172.938 48.3079C173.018 48.4683 173.136 48.5924 173.289 48.6773C173.446 48.7621 173.631 48.8057 173.852 48.8057C174.196 48.8057 174.464 48.691 174.655 48.4614C174.846 48.2343 174.942 47.9106 174.942 47.4951V46.3841C174.942 45.9593 174.846 45.6291 174.655 45.3927C174.464 45.1563 174.196 45.039 173.852 45.039C173.631 45.039 173.446 45.0826 173.289 45.17C173.136 45.2569 173.018 45.3858 172.938 45.5507C172.855 45.716 172.816 45.9181 172.816 46.1569L172.674 44.6099C172.862 44.2013 173.11 43.8869 173.418 43.6642C173.726 43.4415 174.065 43.331 174.437 43.331C174.93 43.331 175.353 43.4508 175.704 43.6872C176.058 43.9255 176.324 44.2725 176.507 44.7291C176.691 45.1882 176.783 45.7371 176.783 46.3772V47.4951C176.783 48.1308 176.691 48.6749 176.507 49.1251C176.324 49.5749 176.058 49.9193 175.704 50.1581C175.353 50.3946 174.93 50.5139 174.437 50.5139ZM182.306 45.9872C182.306 45.6655 182.198 45.4153 181.982 45.2412C181.769 45.0666 181.463 44.9792 181.068 44.9792C180.809 44.9792 180.55 45.0203 180.295 45.1058C180.04 45.1925 179.813 45.3099 179.615 45.4639L178.473 44.3391C178.75 44.0222 179.117 43.774 179.577 43.5974C180.033 43.4209 180.538 43.331 181.096 43.331C181.705 43.331 182.225 43.4321 182.655 43.6367C183.086 43.8407 183.415 44.1369 183.642 44.5249C183.867 44.9131 183.981 45.3809 183.981 45.9274V50.4128H182.306V45.9872ZM180.361 50.5139C179.613 50.5139 179.055 50.3347 178.683 49.9791C178.314 49.623 178.13 49.0814 178.13 48.356C178.13 47.6648 178.337 47.1464 178.753 46.802C179.166 46.4552 179.787 46.283 180.618 46.283H182.365L182.46 47.6878H180.625C180.345 47.6878 180.139 47.7434 179.999 47.8531C179.861 47.9635 179.79 48.1308 179.79 48.356C179.79 48.583 179.877 48.7533 180.054 48.8632C180.229 48.9736 180.493 49.026 180.846 49.026C181.34 49.026 181.706 48.9711 181.945 48.8587C182.186 48.7464 182.306 48.5718 182.306 48.3354L182.448 49.3498C182.421 49.6 182.306 49.8139 182.101 49.988C181.897 50.165 181.64 50.2955 181.335 50.3828C181.027 50.4701 180.703 50.5139 180.361 50.5139ZM185.795 43.4321H187.638V50.4128H185.795V43.4321ZM189.831 46.182C189.831 45.8425 189.731 45.5786 189.539 45.3903C189.343 45.1994 189.066 45.1058 188.708 45.1058C188.366 45.1058 188.104 45.2019 187.916 45.3927C187.73 45.5831 187.638 45.8518 187.638 46.1956L187.496 44.6486C187.707 44.2105 187.96 43.88 188.253 43.6616C188.547 43.4415 188.917 43.331 189.36 43.331C190.094 43.331 190.663 43.5792 191.068 44.0747C191.471 44.5706 191.674 45.2711 191.674 46.175V50.4128H189.831V46.182ZM198.996 43.4321L195.89 52.0472C195.773 52.3659 195.629 52.6162 195.456 52.8045C195.284 52.9905 195.071 53.1239 194.818 53.2039C194.564 53.2843 194.251 53.3255 193.879 53.3255H193.468V51.535H193.879C194.077 51.535 194.242 51.4914 194.373 51.4045C194.506 51.3173 194.605 51.1751 194.673 50.9773L197.263 43.4321H198.996ZM192.548 43.4321H194.284L196.629 49.4989L195.466 50.9842L192.548 43.4321Z" fill="#393A8C"/>
</svg>
